<svg xmlns="http://www.w3.org/2000/svg" viewBox="0 0 90.93 28.3"><path fill="#bbbdbf" d="M46.9,1.37V12s-.22,1.26,1.3,1.26,11.19-.07,19.14.79,10.72,3,10.72,5.18-2.3,7.37-20.94,6.26c0,0-3.87-.18-4.48-1.53a2.75,2.75,0,0,1-.22-1.22,1,1,0,0,0-1.1-1H46.43A1.11,1.11,0,0,0,45.32,23v3.45s-.14,1.21,1.31,1.33,7.3.58,16.63.53S90.93,27,90.93,19.17c0-5.29-8.56-8.81-38-8.81,0,0-1.19.14-1.19-1.22V5.78A1.19,1.19,0,0,1,53,4.63H88.1s1.27.12,1.27-1V1.22A1.18,1.18,0,0,0,88.08,0h-40A1.25,1.25,0,0,0,46.9,1.37Z"/><path fill="#bbbdbf" d="M0,1.52,0,4a.94.94,0,0,0,.31.67,1,1,0,0,0,.7.26L31,5a.4.4,0,0,1,.39.33.44.44,0,0,1-.25.45S10.66,16.79,9.3,26.92a1,1,0,0,0,.17.72.67.67,0,0,0,.52.24h7.71a1.54,1.54,0,0,0,.87-.33.9.9,0,0,0,.37-.61S19.55,16,41.37,4.83a1,1,0,0,0,.48-.38,1.93,1.93,0,0,0,.12-.8l0-2.13a1.14,1.14,0,0,0-.3-.74.88.88,0,0,0-.61-.25H.93a1.09,1.09,0,0,0-.67.3A1.11,1.11,0,0,0,0,1.52Z"/></svg>