<svg xmlns="http://www.w3.org/2000/svg" viewBox="0 0 257.13 32.69"><path fill="#bbbdbf" d="M139.2,13.85l-.15-1.28-.29-1.29L138.32,10h0l-.41-.8-.49-.78-.58-.71-.65-.65-1-.74-1-.62-1.06-.5h0l-1.82-.61-1.86-.38L127.61,4l-1.84-.09L124,3.87h0l-5.42-.05-5.41,0h0l-1.91,0L109.29,4l-1.94.24-1.92.41-1.87.6h0l-1.17.51-1.15.62-1.08.75-1,.89L98.3,9l-.74,1.1L97,11.3l-.45,1.23-.32,1.27-.28,1.9-.13,1.87h0l0,.78h0l-.08,1.77.05,1.82.16,1.24.3,1.22.45,1.18h0l.46.85.56.79.64.73.7.65,1,.74,1.09.59,1.14.49h0l1.85.54,1.87.36,1.88.24,1.87.12,1.87.05h0l5.43.05,5.44,0h0l1.85-.05,1.87-.09,1.88-.22L130,31l1.84-.58h0l1.1-.46,1.06-.57,1-.69.7-.59.63-.66.58-.71.5-.76h0l.59-1.22.45-1.25.29-1.3.24-1.91.12-1.87h0l.05-.79h0l.08-1.84Zm-8.88,3L130.2,19,130,21.09v.09h0l-.26,1.43L129.27,24l-.31.7-.37.66-.45.61-.48.52-.07.06-.65.54-.77.47-.82.36-.86.25-1.17.21-1.18.09-1.13,0h-.1l-3.91,0-3.88-.05H113l-1.08,0-1.12-.09-1.11-.17-.82-.21-.78-.3-.74-.41-.62-.47-.07-.06-.53-.53-.46-.62-.38-.69-.31-.71-.29-1-.18-1-.09-1v-.09l0-2.09.12-2.14.25-2h0l0-.17.32-1.51.53-1.5L106,11l.41-.67.48-.64.53-.54.07-.06.65-.52.77-.45.83-.36.87-.25,1.17-.21,1.2-.09,1.17-.05h.09l3.92,0,3.94.05h.09l1.09,0,1.15.09,1.15.2.83.24.8.36.73.47.6.57.06.07.44.56.37.65.29.69.23.73.26,1.47.1,1.46v2.17Z"/><path fill="#bbbdbf" d="M188.8,13.85l-.15-1.28-.29-1.29L187.91,10h0l-.41-.8L187,8.43l-.58-.71-.65-.65-1-.74-1-.62-1.07-.5h0l-1.82-.61-1.86-.38L177.21,4l-1.84-.09-1.8-.05h0l-5.42-.05-5.42,0h0l-1.91,0L158.89,4,157,4.24,155,4.64l-1.87.6h0L152,5.77l-1.15.62-1.08.75-1,.89-.87,1-.74,1.1-.6,1.19-.45,1.23-.32,1.27-.28,1.9-.13,1.87h0l0,.78h0l-.08,1.77.05,1.82.16,1.24.3,1.22.45,1.18h0l.46.85.55.79.64.73.7.65,1,.74,1.1.59,1.14.49h0l1.84.54,1.87.36,1.88.24,1.87.12,1.87.05h0l5.43.05,5.44,0h0l1.85-.05,1.87-.09,1.88-.22,1.89-.38,1.84-.58h0l1.09-.46,1.06-.57,1-.69.7-.59.63-.66.58-.71.5-.76h0l.59-1.22.45-1.25.29-1.3.24-1.91.12-1.87h0l.05-.79h0l.08-1.84Zm-8.88,3L179.8,19l-.23,2.08v.09h0l-.25,1.43L178.87,24l-.3.7-.37.66-.45.61-.48.52-.07.06-.65.54-.77.47L175,28l-.86.25-1.18.21-1.18.09-1.13,0h-.1l-3.91,0-3.88-.05h-.1l-1.08,0-1.12-.09-1.11-.17-.82-.21-.78-.3-.74-.41-.62-.47-.07-.06-.53-.53-.46-.62-.39-.69-.3-.71-.29-1-.18-1-.09-1v-.09L154,19l.12-2.14.25-2h0l0-.17.32-1.51.53-1.5.34-.71.41-.67.48-.64.53-.54.07-.06.65-.52.77-.45.83-.36.87-.25,1.17-.21,1.2-.09,1.17-.05h.09l3.92,0,3.95.05h.09l1.09,0,1.15.09,1.15.2.83.24.8.36.73.47.6.57.06.07.44.56.37.65.29.69.22.73.26,1.47.1,1.46v2.17Z"/><path fill="#bbbdbf" d="M89.29,28.81c-1.56-.27-2.85-.58-3.15-1.63a5.51,5.51,0,0,1-.18-1c0-.38,0-3,0-3.66s.31-6.91.31-6.91h0l.6-11.41H71.52l-.14,2.71c1,.08,2,.21,3,.37,1.56.27,2.85.58,3.15,1.63a5.6,5.6,0,0,1,.18,1c0,.38,0,3.68,0,4.36,0,.47-.17,3.93-.3,6.23-.06,1-.52,5.3-.6,5.68a5.93,5.93,0,0,1-.28,1c-.41,1.05-1.73,1.36-3.32,1.63-1,.17-2,.29-3.07.38L70,31.89H92.18l.14-2.71C91.29,29.1,90.28,29,89.29,28.81Z"/><path fill="#ec1c24" d="M2,31.27a1,1,0,0,1-1-1V29.6a1,1,0,0,1,1-1A13.31,13.31,0,0,0,8.23,27a1.28,1.28,0,0,0,.49-.85,83.79,83.79,0,0,0,.52-10.36,1,1,0,0,1,.23-.74.93.93,0,0,1,.72-.31H35.93c2.23,0,13.33-.26,13.33-5.48,0-5.71-15-5.77-15.69-5.77H4.77a1.4,1.4,0,0,1-.68-.18,6.48,6.48,0,0,0-2.67-.74.9.9,0,0,1-.85-.86V1.48A.78.78,0,0,1,.78.92.85.85,0,0,1,1.44.65L34,.58A98.28,98.28,0,0,1,49.22,1.76c8.4,1.45,12.66,4.08,12.66,7.81,0,8.21-21.18,9.16-37.11,9.16H23.13c-.23,0-1,.12-1,1.31,0,1.86.24,5.41.24,5.45a5.17,5.17,0,0,0,.13,1.05C23,27.26,24.69,27.7,26,28a41.8,41.8,0,0,0,6.37.64h0a1,1,0,0,1,1,1c0,.43,0,.58,0,.6a1.05,1.05,0,0,1-.26.76,1,1,0,0,1-.75.31Z"/><path fill="#d0d2d3" d="M34,1.15c4,0,27.33.34,27.33,8.42,0,8.37-25.63,8.59-36.54,8.59H23.13a1.65,1.65,0,0,0-1.57,1.9c0,1.89.24,5.47.24,5.47a4.79,4.79,0,0,0,.21,1.3c.16.23.58,1.07,3.93,1.69a42,42,0,0,0,6.47.65h0a.4.4,0,0,1,.43.44c0,.48,0,.63,0,.63a.41.41,0,0,1-.43.45H2a.41.41,0,0,1-.4-.42V29.6A.44.44,0,0,1,2,29.17c.41,0,4.2-.1,6.56-1.65a1.86,1.86,0,0,0,.75-1.26,84.27,84.27,0,0,0,.52-10.43s-.06-.47.38-.47H35.93c2.82,0,13.9-.36,13.9-6.06C49.83,3.11,35.11,3,33.57,3H4.77a.83.83,0,0,1-.4-.11A6.84,6.84,0,0,0,1.49,2s-.34,0-.34-.29V1.48s0-.25.29-.25l32-.07H34M34,0H33.4L1.44.07A1.44,1.44,0,0,0,.35.54a1.39,1.39,0,0,0-.35,1v.24A1.46,1.46,0,0,0,1.37,3.18a6,6,0,0,1,2.38.64l.06,0a2,2,0,0,0,1,.26h28.8c6.07,0,15.11,1.38,15.11,5.2,0,4.77-11.45,4.91-12.75,4.91H10.19A1.5,1.5,0,0,0,9,14.71a1.62,1.62,0,0,0-.38,1.16,83,83,0,0,1-.51,10.24.74.74,0,0,1-.23.44A12.68,12.68,0,0,1,2,28,1.57,1.57,0,0,0,.41,29.55v.72a1.54,1.54,0,0,0,1.51,1.57H32.43a1.57,1.57,0,0,0,1.17-.49,1.63,1.63,0,0,0,.41-1.2h0s0-.15,0-.54A1.55,1.55,0,0,0,32.43,28h0a41.36,41.36,0,0,1-6.23-.63c-1.9-.35-2.84-.79-3.11-1.1a7.13,7.13,0,0,1-.08-.81s-.21-3.59-.24-5.44a.93.93,0,0,1,.14-.6.58.58,0,0,1,.28-.13h1.63c17.55,0,37.69-1.11,37.69-9.74C62.46.69,40.66,0,34,0Z"/><path fill="#ec1c24" d="M226.32,32.12h-29V28.3h.58a5.27,5.27,0,0,0,4-1.36,4.19,4.19,0,0,0,1.08-2.81V13.31h11.49V24.52c0,2.91,2.11,3.32,2.19,3.34a63.85,63.85,0,0,0,6.4.32c6.34,0,21.09-1,21.09-10.74,0-9.11-19.64-9.81-25.66-9.81-1.21,0-1.94,0-1.95,0H199v-4h17.36l1,0c.91,0,2.25,0,3.88,0,13.19,0,35.31,1.8,35.31,13.83C256.55,31.41,231.36,32.12,226.32,32.12Z"/><path fill="#d0d2d3" d="M221.24,4.16C232.05,4.16,256,5.29,256,17.41c0,13.49-25,14.13-29.66,14.13H197.89V28.87c5.86,0,5.61-4.77,5.61-4.77V13.89h10.34V24.52c0,3.47,2.67,3.9,2.67,3.9a64.06,64.06,0,0,0,6.49.33c9.58,0,21.66-2.14,21.66-11.31C244.68,7.82,224.84,7,218.44,7c-1.23,0-2,0-2,0H199.54V4.22h16.79c.66,0,2.44-.06,4.91-.06m0-1.15c-1.64,0-3,0-3.89,0l-1,0H198.39V8.23h18.08c.05,0,.78,0,2,0,4.19,0,25.09.45,25.09,9.24,0,9.17-14.34,10.16-20.51,10.16a62.86,62.86,0,0,1-6.33-.32c-.31-.07-1.69-.5-1.69-2.76V12.74H202.36V24.17a3.62,3.62,0,0,1-.93,2.39,4.74,4.74,0,0,1-3.54,1.17h-1.15v5h29.57c5.14,0,30.81-.74,30.81-15.28,0-6.57-6.23-14.4-35.88-14.4Z"/></svg>