<svg xmlns="http://www.w3.org/2000/svg" viewBox="0 0 94.66 28.09"><path fill="#bbbdbf" d="M29.62,10H18a14.91,14.91,0,0,0-5.47.9,1.07,1.07,0,0,1-1.3-.07c-.56-.56.14-1.64.14-1.64a7.45,7.45,0,0,1,7-4.24H41.6s1.56.11,1.71-1.26.27-2.34.27-2.34S43.69.06,42,.06H18.11S7.78-1.41,1.6,10c0,0-4,7.55.72,14,0,0,2.63,3.81,11.94,3.81H30s15.65.07,15.65-8.56S32.61,10,29.62,10ZM23.37,24.45c-5.66,0-13.74.65-13.74-5,0-6.4,7.82-6.07,7.82-6.07h7.75c3.17,0,11.27.1,11.27,5.56S29,24.45,23.37,24.45Z"/><path fill="#bbbdbf" d="M81,.06c-14,0-12.27,0-12.27,0S52.82-.91,51.28,10.24L50.74,16S50,23.34,56,26.18c0,0,3.35,1.91,9.89,1.91H79.8s13.78.32,14.5-10.61l.36-6.94S95,.06,81,.06ZM85.24,17.8c-.65,7.48-8.56,7.12-8.56,7.12s-1.8.18-10.18-.07S59.59,14.7,59.59,14.7l.29-3c.79-9,8.67-8.31,8.67-8.31s-.76-.11,8.92-.11S85.9,10.17,85.24,17.8Z"/></svg>