<svg xmlns="http://www.w3.org/2000/svg" viewBox="0 0 162.77 29.68">
<style>
.cls-2{fill:#d0d2d3;}
</style>
<path fill="#bbbdbf" d="M29.62,10.79H18a14.91,14.91,0,0,0-5.47.9,1.07,1.07,0,0,1-1.3-.07c-.56-.56.14-1.64.14-1.64a7.45,7.45,0,0,1,7-4.24H41.6s1.56.11,1.71-1.26.27-2.34.27-2.34S43.69.86,42,.86H18.11S7.78-.62,1.6,10.75c0,0-4,7.55.72,14,0,0,2.63,3.81,11.94,3.81H30s15.65.07,15.65-8.56S32.61,10.79,29.62,10.79ZM23.37,25.25c-5.66,0-13.74.65-13.74-5,0-6.4,7.82-6.07,7.82-6.07h7.75c3.17,0,11.27.1,11.27,5.56S29,25.25,23.37,25.25Z"/>
<path fill="#bbbdbf" d="M81,.86c-14,0-12.27,0-12.27,0S52.82-.11,51.28,11l-.54,5.76S50,24.13,56,27c0,0,3.35,1.91,9.89,1.91H79.8s13.78.32,14.5-10.61l.36-6.94S95,.86,81,.86Zm4.21,17.74c-.65,7.48-8.56,7.12-8.56,7.12s-1.8.18-10.18-.07S59.59,15.5,59.59,15.5l.29-3c.79-9,8.67-8.31,8.67-8.31s-.76-.11,8.92-.11S85.9,11,85.24,18.59Z"/>
<path d="M132,29.1H103V25.28h.58a5.27,5.27,0,0,0,4-1.36,4.19,4.19,0,0,0,1.08-2.81V10.3h11.49V21.51c0,2.91,2.11,3.32,2.19,3.34a64,64,0,0,0,6.4.32c6.34,0,21.09-1,21.09-10.74,0-9.11-19.64-9.81-25.66-9.81-1.21,0-1.94,0-1.95,0H104.61v-4H122l1,0c.91,0,2.24,0,3.88,0,13.19,0,35.31,1.8,35.31,13.83C162.2,28.39,137,29.1,132,29.1Z"/>
<path class="cls-2" d="M126.89,1.15c10.81,0,34.73,1.13,34.73,13.25,0,13.49-25,14.13-29.66,14.13H103.54V25.86c5.86,0,5.61-4.77,5.61-4.77V10.88h10.34V21.51c0,3.47,2.67,3.9,2.67,3.9a64.05,64.05,0,0,0,6.49.33c9.58,0,21.66-2.14,21.66-11.31C150.32,4.81,130.49,4,124.09,4c-1.23,0-2,0-2,0H105.19V1.21H122c.66,0,2.44-.06,4.91-.06m0-1.15c-1.64,0-3,0-3.89,0l-1,0H104V5.22h18.08c.05,0,.78,0,2,0,4.19,0,25.09.45,25.09,9.24,0,9.17-14.34,10.16-20.51,10.16a62.85,62.85,0,0,1-6.33-.32c-.31-.07-1.69-.5-1.69-2.76V9.72H108V21.15a3.62,3.62,0,0,1-.93,2.39,4.74,4.74,0,0,1-3.54,1.17h-1.15v5H132c5.14,0,30.81-.74,30.81-15.28,0-6.57-6.23-14.4-35.88-14.4Z"/>
</svg>
