<svg xmlns="http://www.w3.org/2000/svg" viewBox="0 0 156.3 29.68">
<style>
.cls-2{fill:#231f20;}
.cls-3{fill:#d0d2d3;}
</style>
<path fill="#bbbdbf" d="M46.9,2.2V12.85s-.22,1.26,1.3,1.26,11.19-.07,19.14.79,10.72,3,10.72,5.18-2.3,7.37-20.94,6.26c0,0-3.87-.18-4.48-1.53a2.75,2.75,0,0,1-.22-1.22,1,1,0,0,0-1.1-1H46.43a1.11,1.11,0,0,0-1.12,1.24v3.45s-.14,1.21,1.31,1.33,7.3.58,16.63.53S90.93,27.85,90.93,20c0-5.29-8.56-8.81-38-8.81,0,0-1.19.14-1.19-1.22V6.61A1.19,1.19,0,0,1,53,5.46H88.1s1.27.12,1.27-1V2.06A1.18,1.18,0,0,0,88.08.83h-40A1.25,1.25,0,0,0,46.9,2.2Z"/>
<path class="cls-2" d="M125.49,29.1h-29V25.28h.58a5.27,5.27,0,0,0,4-1.36,4.19,4.19,0,0,0,1.08-2.81V10.3H113.6V21.51c0,2.91,2.11,3.32,2.19,3.34a63.71,63.71,0,0,0,6.4.32c6.34,0,21.09-1,21.09-10.74,0-9.11-19.64-9.81-25.66-9.81-1.21,0-1.94,0-1.94,0H98.14v-4h17.36l1,0c.91,0,2.24,0,3.88,0,13.19,0,35.31,1.8,35.31,13.83C155.72,28.4,130.54,29.1,125.49,29.1Z"/>
<path class="cls-3" d="M120.42,1.15c10.81,0,34.73,1.13,34.73,13.25,0,13.49-25,14.13-29.66,14.13H97.07V25.86c5.86,0,5.61-4.77,5.61-4.77V10.88H113V21.51c0,3.47,2.67,3.9,2.67,3.9a64.06,64.06,0,0,0,6.49.33c9.58,0,21.66-2.14,21.66-11.31C143.85,4.81,124,4,117.62,4c-1.23,0-2,0-2,0H98.72V1.21h16.79c.66,0,2.44-.06,4.91-.06m0-1.15c-1.64,0-3,0-3.89,0l-1,0H97.57V5.22h18.08c.05,0,.78,0,2,0,4.19,0,25.09.45,25.09,9.24,0,9.17-14.34,10.16-20.51,10.16a62.86,62.86,0,0,1-6.33-.32c-.31-.07-1.69-.5-1.69-2.76V9.72H101.53V21.15a3.62,3.62,0,0,1-.93,2.39,4.74,4.74,0,0,1-3.54,1.17H95.92v5h29.57c5.14,0,30.81-.74,30.81-15.28,0-6.57-6.23-14.4-35.88-14.4Z"/>
<path fill="#bbbdbf" d="M0,2.35,0,4.83a.94.94,0,0,0,.31.67,1,1,0,0,0,.7.26l30,0a.4.4,0,0,1,.39.33.44.44,0,0,1-.25.45S10.66,17.62,9.3,27.76a1,1,0,0,0,.17.72.67.67,0,0,0,.52.24h7.71a1.54,1.54,0,0,0,.87-.33.9.9,0,0,0,.37-.61s.61-10.93,22.42-22.12a1,1,0,0,0,.48-.38,1.93,1.93,0,0,0,.12-.8l0-2.13a1.14,1.14,0,0,0-.3-.74.88.88,0,0,0-.61-.25H.93a1.09,1.09,0,0,0-.67.3A1.11,1.11,0,0,0,0,2.35Z"/>
</svg>
