<svg xmlns="http://www.w3.org/2000/svg" viewBox="0 0 160.46 29.68"><path d="M129.65,29.1h-29V25.28h.58a5.27,5.27,0,0,0,4-1.36,4.19,4.19,0,0,0,1.08-2.81V10.3h11.49V21.51c0,2.91,2.11,3.32,2.19,3.34a63.71,63.71,0,0,0,6.4.32c6.34,0,21.09-1,21.09-10.74,0-9.11-19.64-9.81-25.66-9.81-1.21,0-1.94,0-1.94,0H102.3v-4h17.36l1,0c.91,0,2.25,0,3.88,0,13.19,0,35.31,1.8,35.31,13.83C159.88,28.39,134.7,29.1,129.65,29.1Z"/><path fill="#d0d2d3" d="M124.58,1.15c10.81,0,34.73,1.13,34.73,13.25,0,13.49-25,14.13-29.66,14.13H101.23V25.86c5.86,0,5.61-4.77,5.61-4.77V10.88h10.34V21.51c0,3.47,2.67,3.9,2.67,3.9a64.05,64.05,0,0,0,6.49.33c9.58,0,21.66-2.14,21.66-11.31C148,4.81,128.18,4,121.77,4c-1.23,0-2,0-2,0H102.88V1.21h16.79c.66,0,2.44-.06,4.91-.06m0-1.15c-1.64,0-3,0-3.89,0l-1,0H101.72V5.22h18.08c.05,0,.78,0,2,0,4.19,0,25.09.45,25.09,9.24,0,9.17-14.34,10.16-20.51,10.16a62.85,62.85,0,0,1-6.33-.32c-.31-.07-1.69-.5-1.69-2.76V9.72H105.69V21.15a3.62,3.62,0,0,1-.93,2.39,4.74,4.74,0,0,1-3.54,1.17h-1.15v5h29.57c5.14,0,30.81-.74,30.81-15.28,0-6.57-6.23-14.4-35.88-14.4Z"/><path fill="#bbbdbf" d="M32.59.9H13.35C7.19.9,0,4.15,0,9.87c0,6.56,7.25,9,13.69,9H34.87a.81.81,0,0,1,.81.92c-.51,3.24-4,4.2-8.48,4.2H5.48c-.9,0-1.15.67-1.27,1.54l-.31,2.25A1.22,1.22,0,0,0,5.13,29H28.36c6.62,0,16.11-3.3,16.86-14.61C45.68,7.53,41.42.9,32.59.9ZM28.76,15.4H16.85c-4,0-8.43-1.49-8.43-5.52,0-3.52,4-5.52,7.76-5.52H29.11c4.22,0,6.57,2.51,7,5.52C36.87,14.92,34.63,15.4,28.76,15.4Z"/><path fill="#bbbdbf" d="M78.51,1c-14,0-12.27,0-12.27,0S50.3,0,48.76,11.13l-.54,5.76s-.76,7.34,5.29,10.18c0,0,3.35,1.91,9.89,1.91H77.28s13.78.32,14.5-10.61l.36-6.94S92.5,1,78.51,1Zm4.21,17.74c-.65,7.48-8.56,7.12-8.56,7.12S72.36,26,64,25.74s-6.91-10.14-6.91-10.14l.29-3C58.15,3.58,66,4.3,66,4.3s-.76-.11,8.92-.11S83.38,11.06,82.72,18.69Z"/></svg>