<svg width="43" height="43" id="Layer_1" xmlns="http://www.w3.org/2000/svg" viewBox="0 0 160 160"><style>.st0{fill:#CCCCCC;}</style><path class="st0" d="M149.8 75.2c-1-14.2-5.8-27-14.6-38.2-10.5-13.4-24.1-21.9-40.7-25.5-3.8-.8-7.6-1.3-11.4-1.4-.2 0-.3 0-.5-.1h-5.2c-.7.1-1.4.1-2.1.2-19.2 1.5-35.2 9.4-47.9 23.7-8.4 9.4-13.7 20.4-16.1 32.8-.7 3.3-1.1 6.7-1.2 10.1 0 .2-.1.4-.1.6v5.2c.1.7.1 1.5.2 2.2 1 13.6 5.5 26 13.7 36.9 10.5 14 24.4 22.9 41.5 26.7 3.8.8 7.7 1.3 11.6 1.5.2 0 .3 0 .5.1h5.2c.7-.1 1.4-.1 2.2-.2 15.2-1.1 28.6-6.5 40.3-16.3 11.2-9.4 18.7-21.3 22.6-35.4 1.3-4.9 2.1-9.9 2.3-15 0-.2.1-.4.1-.6v-5.2c-.3-.6-.3-1.4-.4-2.1zm-49.5-35.3c2.1-3.5 4.3-6.9 6.4-10.3l.9-1.2c.3-.3.6-.4.9-.2.8.5 1.7.9 2.5 1.4 2.9 1.8 5.7 3.8 8.1 6.1 1.9 1.8 3.7 3.6 5.5 5.5.8.8 1.5 1.8 2.3 2.7.7.8.6 1-.2 1.6-1.4 1.1-2.9 2.2-4.4 3.3-5.1 3.6-10.2 7.1-15.6 10.2-2.4 1.4-4.8 2.7-7.5 3.4-.1 0-.2.1-.3.1-1 .4-1.7.1-2.5-.6-1-.9-2.1-1.7-3.2-2.5-.7-.5-1-1-.9-1.7.1-2.3.9-4.2 1.7-6.2 1.9-4 4.1-7.9 6.3-11.6zM79.8 21.2c0-.4.2-.6.6-.6h1.5c3.5.2 6.8.5 10 1.2 1.5.3 1.5.4 1.1 1.8-1.2 3.9-2.5 7.8-3.7 11.7-1.6 5.1-3.1 10.3-4.7 15.5-.4 1.4-1 2.8-1.5 4.1-.2.5-.5.7-1.1.7-.6-.1-.9-.3-1-.9-.2-1.5-.5-3-.7-4.5-.7-8.7-.7-17.4-.7-26.1 0-.8.1-1.8.2-2.9zm.1 50.9c4.3 0 7.8 3.5 7.8 7.8s-3.5 7.8-7.8 7.8-7.8-3.5-7.8-7.8 3.5-7.8 7.8-7.8zm4.7 24.2c0 2.7-2.2 4.9-4.9 4.9s-4.9-2.2-4.9-4.9 2.2-4.9 4.9-4.9 4.9 2.2 4.9 4.9zm-9.3-29.6c0 2.7-2.2 4.9-4.9 4.9s-4.9-2.2-4.9-4.9 2.2-4.9 4.9-4.9 4.9 2.2 4.9 4.9zm-6.2 18.2c0 2.7-2.2 4.9-4.9 4.9s-4.9-2.2-4.9-4.9 2.2-4.9 4.9-4.9c2.8 0 4.9 2.1 4.9 4.9zM39.7 36.5c1.3-1.1 2.6-2.3 3.9-3.3 4.8-3.8 10.1-6.6 15.8-8.8.4-.1.8-.2 1.1-.4.4-.2.6 0 .8.3.3.6.5 1.2.7 1.9 2.3 6.8 4.3 13.7 5.9 20.7.6 2.8 1.2 5.6 1.2 8.8 0 .3-.1.9-.1 1.5s-.3 1-.8 1.3c-1.4.9-2.8 1.9-4.2 2.8-.5.3-1 .3-1.5.1-1.6-.7-3-1.7-4.3-2.8-3-2.5-5.7-5.3-8.2-8.3-3.3-3.8-6.5-7.7-9.7-11.6-.3-.3-.5-.8-.8-1.1-.1-.6-.1-.9.2-1.1zM23.8 60.8c1.2-3.7 2.8-7.2 4.8-10.5.6-1 .7-1.1 1.7-.4 2.6 1.8 5.2 3.7 7.7 5.5 5.1 3.6 10.3 7.2 15.4 10.9 1.3.9 2.4 1.9 3.6 2.9.6.4.6.7.3 1.4-.2.6-.5.8-1.2.9-1.7-.4-3.5-.7-5.2-1.1-7.1-1.8-14.1-4-21.1-6.3-1.8-.6-3.6-1.2-5.4-1.9-.1 0-.1-.1-.2-.1-.6-.4-.6-.5-.4-1.3zm4.7 44.1c-.4.2-.8.3-1.2.4-.7.2-.8.2-1.1-.5-.8-1.8-1.5-3.6-2.2-5.4-1.3-3.6-2.2-7.4-2.7-11.2-.3-2.3-.4-4.6-.6-6.8-.1-.9.1-1.1 1-1.1 2.2-.1 4.4-.1 6.6-.1h2.3c5.5.1 10.9.4 16.3 1.1 2.6.3 5.2.8 7.6 1.8.7.3 1 .8 1.2 1.5.4 1.5.8 2.9 1.2 4.4.2.7.1 1.3-.3 1.8-1.3 1.7-3.1 2.9-4.9 3.9-4 2.3-8.2 4.2-12.5 6-3.6 1.4-7.2 2.8-10.7 4.2zm18.1 21.6c-.3.4-.6.7-.9 1.1-.3.3-.6.3-.9.1-1.1-.9-2.3-1.7-3.3-2.6-1.9-1.7-3.7-3.5-5.5-5.4-.9-.9-.8-1.1.2-1.9 2.2-1.6 4.4-3.2 6.6-4.9 5.4-4.1 10.8-8.1 16.2-12.2 1.2-.9 2.5-1.7 3.8-2.6.7-.4 1.6.2 1.7 1.1-.1.4-.3.9-.5 1.4-.9 1.7-1.8 3.4-2.8 5-4.7 7.3-9.6 14.1-14.6 20.9zm41.3 11.7c0 .3-.2.6-.6.6-1 .1-2.1.3-3.1.4-1.4.1-2.8.1-3.6.1-6.3 0-11.7-.8-17.1-2.3-1.6-.4-1.6-.5-1.1-2.1 1.4-4.2 2.7-8.3 4.2-12.5 1.5-4.3 3.2-8.5 5.2-12.5.9-1.7 1.9-3.4 3.2-4.9.4-.5.9-.7 1.6-.7 1.6.1 3.2.1 4.9.2.6 0 1 .3 1.4.8 1 1.4 1.6 3 1.9 4.6.5 2.3 1 4.6 1.3 7 .4 3.1.8 6.2 1.1 9.3.3 3.4.5 6.8.7 10.3.1.6 0 1.1 0 1.7zm-3.2-71.4c0-2.7 2.2-4.9 4.9-4.9s4.9 2.2 4.9 4.9-2.2 4.9-4.9 4.9-4.9-2.2-4.9-4.9zM90.2 85c0-2.7 2.2-4.9 4.9-4.9s4.9 2.2 4.9 4.9-2.2 4.9-4.9 4.9-4.9-2.2-4.9-4.9zm24.3 43.2c-1.1.8-2.1 1.5-3.3 2.2-2.2 1.4-4.5 2.6-6.9 3.7-.3.1-.6.2-1 .4-.2-.2-.4-.3-.5-.6-.4-1.1-.8-2.2-1.2-3.2-2.8-8.1-5.6-16.3-8.4-24.4-.5-1.4-.8-2.8-1.2-4.2-.2-.6 0-.8.5-1.1.5-.3 1-.3 1.4 0 1.1 1.1 2.3 2.1 3.3 3.2 3.7 4.1 7 8.6 10.3 13 2.2 2.9 4.4 5.9 6.5 8.9.3.4.5.7.7 1.1.3.5.3.7-.2 1zm23.6-36.8c-.4 1.7-.8 3.4-1.2 5-1.3 4.8-3.4 9.3-5.8 13.6-.7 1.2-1.4 2.4-2.2 3.6-.5.8-.7.8-1.4.3-1.2-.8-2.4-1.6-3.6-2.5-5.2-3.8-10.4-7.8-15.3-12.1-2.1-1.9-4.2-3.9-5.9-6.3-.1-.2-.2-.3-.3-.5-.6-.7-.5-1.5-.2-2.3.5-1.2 1-2.4 1.3-3.7.3-1.2 1.1-1.7 2.2-1.9.9-.1 1.8-.2 2.8-.3 2.5.1 5 .5 7.4.9 5 .9 9.9 2 14.9 3.3 1.8.5 3.7 1 5.5 1.5.4.1.8.3 1.2.4.5.2.7.5.6 1zm0-16.5h-1.8c-4.7 0-9.4.1-13.7.1-4.5.1-8.6.3-12.7.4-1.8 0-3.6-.1-5.4-.1-.6 0-.7-.4-.8-.8-.1-.5-.2-1 .3-1.3 1.1-.6 2.1-1.2 3.3-1.7 4.7-2.1 9.6-3.8 14.5-5.5 4.1-1.4 8.2-2.7 12.4-4.1.4-.1.9-.2 1.4-.3.5-.1.8 0 .9.5.5 1.7 1 3.3 1.3 5 .4 2.2.7 4.5 1 6.8.2.9.1 1-.7 1z"/></svg>
