<svg width="43" height="43" xmlns="http://www.w3.org/2000/svg" viewBox="0 0 160 160"><path fill="#CCC" d="M80 0C35.8 0 0 35.8 0 80s35.8 80 80 80 80-35.8 80-80S124.2 0 80 0zm15.6 55.6c1.2-4.2 2.8-8 4.6-12 3.6-7.4 7.4-14.8 11.4-21.8.2-.4.4-.6.6-1 .2-.2.4-.4.6-.2 3 1.8 6 3.6 8.8 5.8 2.6 2 5 4.2 7.2 6.6.6.6.6.8 0 1.2-2.2 1.8-4.4 3.4-6.6 5.2C119 42.2 116 45 113 48c-3.4 3.2-6.6 6.6-10 9.8-1.8 1.6-3.8 3.2-5.8 4.4-.8.4-1 .4-1.8-.2-1-.8-1-1-1-3.2.6-.6 1-1.8 1.2-3.2zm-23-43.2c1.4-.2 2.8-.2 4-.4h4c2.4.2 5 .4 7.4.6l4.2.6c.6 0 .8.4.6 1-.8 3-1.6 5.8-2.4 8.8-.8 3.4-1.4 6.6-2 10-1 4.8-1.6 9.8-2.8 14.6-.6 2.2-1.4 4.4-2.8 6.2-.6.8-1.2 1.4-1.8 2-.6.4-1.4.6-2 .4-.4-.2-.6-.6-.6-1-.4-1.2-.8-2.4-1-3.6-.8-3.6-1.4-7-2-10.6s-1.2-7.4-1.8-11c-.6-3.4-1-6.8-1.4-10.2-.2-2-.6-3.8-.8-5.8 0-1.2 0-1.4 1.2-1.6zM88 79.8c0 4.4-3.6 8-8 8s-8-3.6-8-8 3.6-8 8-8 8 3.6 8 8zm-15.6-11c0 2.8-2.2 5-5 5s-5-2.2-5-5 2.2-5 5-5 5 2.2 5 5zm-1.8 19.6c0 2.8-2.2 5-5 5s-5-2.2-5-5 2.2-5 5-5 5 2.2 5 5zM33.8 30.2c2.2-2 4.4-3.8 6.8-5.6l3-2c2.4-1.4 4.8-2.6 7.2-4 .6-.4.8-.2 1 .4 1.2 3 2.2 6 3.4 9 2.2 5.2 4.8 10.2 7.4 15.4 1.6 3.2 3 6.4 4.4 9.6.6 1.6 1 3.2 1.6 5 .2.4 0 1-.4 1.2s-1 .6-1.4.6c-1.6-.2-2.6-.6-3.8-1.4-4-2.4-7.6-5.4-10.8-8.6-6-5.6-11.6-11.6-17.2-17.6-.4-.4-.8-1-1.2-1.4-.4-.2-.4-.4 0-.6zm-20.4 36C14 63 15 59.8 16 56.6c1.2-3.2 2.4-6.2 4.2-9 .4-.6.6-.6 1.2-.4 1.8 1.2 3.4 2.2 5.2 3.4 5 3.2 10.2 5.8 15.2 8.6 3 1.6 6 3.4 9 5.2 1.8 1 3.4 2.4 4.8 4 .6.8 1.2 1.8 1.6 2.8.4.6.2 1.4-.2 2-.2.2-.6.4-1 .4h-1c-2-.2-4-.2-6.2-.6-4.2-.6-8.2-1.2-12.4-1.8-5-.8-10-1.6-15-2.6-2.4-.4-4.8-.8-7.2-1.4-1.2.2-1 0-.8-1zm6.8 42.2c-.4.2-.8.4-1.2.4-.4.2-.6 0-.8-.4-1.6-3.6-3-7.4-4-11.4-.6-2.8-1-5.4-1.6-8.2-.2-.6.2-.8.6-.8 2.2 0 4.4 0 6.6-.2 2-.2 4.2-.4 6.2-.6s3.8-.4 5.8-.8c2.2-.2 4.2-.6 6.4-1s4.4-.6 6.6-1c1.6-.2 3.2-.4 5-.6H52c1.2 0 2.4.2 3.6.2.6 0 .8.4 1 .8.4 1.4 0 2.4-1 3.4-1.4 1.2-2.8 2.6-4.4 3.6-4.6 3.4-9.6 6-14.8 8.6-5.4 2.8-10.8 5.4-16.2 8zm46-7.2c-.8 2-1.4 4-2.4 6-2.6 5.2-5.2 10.6-7.8 15.8-2.6 5-5.4 10.2-8 15.2-.2.4-.4.8-.8 1.2-.2.4-.6.4-1 .2l-4.8-3c-4-2.8-7.8-5.8-11-9.4-.6-.6-.6-1 0-1.6 2.4-2 5-4 7.4-6.2l10.8-10.2c2.2-2.2 4.6-4.2 6.8-6.2 1.8-1.4 3.8-2.8 6-3.4l2.4-.6c.8.2 1.4.4 1.8.8.8.6.8 1 .6 1.4zm21.6 46.6c-2.6.2-5.2.4-7.4.6-2.4-.2-4.4-.2-6.4-.4-2.2-.2-4.2-.6-6.4-.8-.6 0-.8-.4-.6-1 .8-2.8 1.6-5.8 2.4-8.6.8-3.4 1.4-6.6 2-10 .8-5 1.6-10 2.6-14.8.4-2.6 1.2-5.2 2.4-7.6.2-.6.6-.8 1.2-.8 1.4-.2 2.2.8 2.8 1.8.8 1.8 1.6 3.6 2.2 5.4 1.4 4 2.2 8.2 2.8 12.2.6 3.6 1.2 7.4 1.8 11l1.2 8.4c.2 1.2.2 2.6.4 3.8-.2.6-.4.8-1 .8zm-4-46.8c-2.8 0-5-2.2-5-5s2.2-5 5-5 5 2.2 5 5-2.2 5-5 5zm2.8-31.6c-2.8 0-5-2.2-5-5s2.2-5 5-5 5 2.2 5 5-2.2 5-5 5zm10 6.8c2.8 0 5 2.2 5 5s-2.2 5-5 5-5-2.2-5-5c0-2.6 2.2-5 5-5zm29.4 54.2c-4.4 4.2-9.4 7.6-14.8 10.4-.6.4-1.2.6-1.8 1-.8.4-1 .2-1.2-.6-1-2.8-2-5.6-3.2-8.2-2.2-4.8-4.6-9.6-6.8-14.6-1.2-2.8-2.6-5.4-3.8-8.2-.8-2-1.4-4.2-1.4-6.6 0-.6.2-1.4.2-2.2.2-.8.6-1.4 1.4-1.6.2-.2.8 0 1 .2 1 .6 1.8 1.2 2.8 2 3.4 2.6 6.4 5.6 9.4 8.6 5.4 5.4 10.8 10.8 16.2 16.4.8.8 1.6 1.8 2.4 2.6.2.2 0 .2-.4.8zm20.8-37c-1 4.4-2 8.6-3.8 12.6l-3 6.6c-.4.6-.6.6-1.2.2-2.8-1.8-5.8-3.8-8.6-5.6-4.8-3-10-5.4-15.2-8.2-3.2-1.6-6.2-3.2-9.2-5-1.2-.8-2.4-1.8-3.4-2.6-.4-.4-.6-.8-.4-1.4.4-1.4 1.4-2 2.6-2 2-.4 4.2-.4 6.2-.6v.2c3.6 0 7 .4 10.4.8 4.6.6 9.4 1.4 14 2.2 3.4.6 6.8 1.2 10 2 .4 0 .6.2 1 .2.6 0 .6.2.6.6zm.2-21.2c-1.4 0-3 0-4.4.2-2.2.2-4.2.2-6.4.4l-5.4.6c-2 .2-4 .6-6 .8-2 .2-4 .6-6 .8l-4.8.6h-3.2c-2.4 0-4.6-.2-6.8-1.4-.8-.4-1.2-1-1.4-1.8-.2-.4.2-.8.6-1 .8-.6 1.6-1.2 2.4-1.6 4.2-2.8 8.6-5 13-7.2 6.8-3.4 13.8-6.8 20.6-10.2l1.8-.6c.4-.2.6 0 .8.4 1.8 3.6 3 7.4 4 11.4.6 2.6 1 5.2 1.6 7.8v.6s0 .2-.4.2z"/></svg>
