<?xml version="1.0" encoding="utf-8"?>
<!-- Generator: Adobe Illustrator 18.1.1, SVG Export Plug-In . SVG Version: 6.00 Build 0)  -->
<svg version="1.1" id="Layer_1" xmlns="http://www.w3.org/2000/svg" xmlns:xlink="http://www.w3.org/1999/xlink" x="0px" y="0px"
	 viewBox="0 0 72 72" enable-background="new 0 0 72 72" xml:space="preserve">
<g>
	<path fill="#FFFFFF" d="M29.5,27.4c2.6-1.8,5.3-2.7,8.2-2c2.1,0.5,3.8,0.3,5.5-0.7c1.4-0.8,2.8-1.4,4.1-2.2
		c2.6-1.6,4.5-3.9,5.8-6.7C54.8,12,54.4,8.4,52,5c-1.8-2.6-4.3-4.2-7.3-5c-1.1,0-2.2,0-3.4,0c-0.5,0.2-1,0.3-1.5,0.5
		c-8,2.2-14,10.3-13.4,18.5C26.6,22,27.8,24.8,29.5,27.4z"/>
	<path fill="#FFFFFF" d="M65.4,30.7c-6.1-5.9-14.4-5.3-20.7-1.2c0.2,0.3,0.3,0.5,0.5,0.8c1.5,2.5,2.2,5.1,1.3,7.9
		c-0.5,1.8-0.2,3.2,0.6,4.6c0.4,0.8,0.8,1.7,1.3,2.6c1.5,2.9,3.5,5.3,6.4,6.9c4.8,2.8,9.7,2.2,13.7-1.6c1.7-1.6,2.7-3.7,3.5-5.8
		c0-1.2,0-2.4,0-3.6C70.9,37,68.5,33.7,65.4,30.7z"/>
	<path fill="#FFFFFF" d="M27.4,42.5c-1.9-2.7-2.8-5.6-1.9-8.7c0.5-1.8,0.2-3.2-0.6-4.7c-0.7-1.3-1.3-2.7-2.1-4
		c-1.6-2.7-3.9-4.7-6.8-6.1c-3.9-1.8-7.6-1.4-11,1.1c-2.5,1.8-4.1,4.3-5,7.3c0,1.1,0,2.2,0,3.4c0.8,2.9,2.1,5.6,4,7.9
		c4.3,5.1,9.5,8.1,16.4,6.7C22.9,44.8,25.2,43.9,27.4,42.5z"/>
	<path fill="#FFFFFF" d="M33.9,46.5c-1.8-0.5-3.2-0.2-4.7,0.6c-0.7,0.4-1.5,0.7-2.3,1.1c-3.6,1.8-6.3,4.4-8,8.1
		c-3.8,8.2,4.3,16,10.2,15.7c3.7-0.2,6.7-1.8,9.5-4c8.5-6.8,8.9-15.2,4-23.3C39.9,46.5,37,47.4,33.9,46.5z"/>
	<path fill="#FFFFFF" d="M30,35.9c0,3.3,2.7,6,6,6c3.3,0,6-2.7,6-6c0-3.3-2.7-6-6.1-6C32.7,30,30,32.7,30,35.9z"/>
</g>
</svg>
