<?xml version="1.0" encoding="utf-8"?>
<!-- Generator: Adobe Illustrator 18.1.1, SVG Export Plug-In . SVG Version: 6.00 Build 0)  -->
<svg version="1.1" id="Layer_1" xmlns="http://www.w3.org/2000/svg" xmlns:xlink="http://www.w3.org/1999/xlink" x="0px" y="0px"
	 viewBox="0 0 72 72" enable-background="new 0 0 72 72" xml:space="preserve">
<g>
	<path fill="#FFFFFF" d="M11.1,17.4c0.8-0.8,1.7-1.6,2.6-2.3c3-2.2,6.3-3.6,10.1-3c2.6,0.4,4.9,1.7,7,3.4c2.1,1.8,4.1,3.8,6.2,5.5
		c3.7,2.9,7.8,4.7,12.6,4.6c6.4-0.2,11.5-3.3,15.6-8.2c1.1-1.3,0.9-3.2-0.3-4.3c-1.2-1.1-3-0.8-4.2,0.4c-0.8,0.9-1.6,1.8-2.5,2.5
		c-2.7,2.2-5.7,3.7-9.3,3.5c-2.8-0.1-5.4-1.1-7.6-2.9c-2.1-1.7-4.1-3.6-6.2-5.4C31.4,8.1,27.2,6,22.2,6c-0.8,0-1.5,0-2.2,0.1
		c-5.2,0.8-9.5,3.3-13.1,7.1c-1.2,1.3-1.2,3.2-0.1,4.3C8.1,18.8,9.9,18.7,11.1,17.4z"/>
	<path fill="#FFFFFF" d="M8.1,38.5c1.3,0.4,2.3-0.1,3.2-1c3-3,6.4-5.2,10.7-5.3c3.3-0.1,6.1,1.2,8.6,3.3c1.9,1.6,3.5,3.3,5.4,4.9
		c3.9,3.2,8.2,5.4,13.3,5.3c0.6,0,1.2,0,1.8,0c0.4,0,0.9-0.1,1.3-0.2c5.4-1,9.6-3.9,13-8.2c1.3-1.6,0.3-4-1.7-4.5
		c-1.4-0.4-2.4,0.3-3.3,1.3c-3,3.4-6.6,5.8-11.3,5.8c-3.4,0-6.3-1.4-8.9-3.6c-1.9-1.6-3.7-3.4-5.6-5c-9.5-8.1-20.5-5.8-28,2.4
		C5.3,35.3,6,37.8,8.1,38.5z"/>
	<path fill="#FFFFFF" d="M65,53.6c-1.3-1.1-2.9-1-4.2,0.4c-0.7,0.7-1.3,1.5-2.1,2.1c-5.4,4.8-11.5,5.3-17.4,1.1
		c-1.6-1.1-2.9-2.5-4.4-3.7c-1.5-1.3-3-2.7-4.6-3.8c-3.4-2.3-7.1-3.6-11.2-3.3c-5.6,0.4-10.3,3-14.1,7.1c-1.3,1.4-1.4,3.2-0.2,4.4
		c1.2,1.2,2.9,1.1,4.3-0.3c1.1-1.1,2.3-2.1,3.5-3c2-1.3,4.1-2.2,6.5-2.4c3.4-0.2,6.4,1,9,3.1c1.9,1.5,3.6,3.3,5.4,4.9
		c4,3.4,8.4,5.6,13.6,5.6c0.6,0,1.2,0.1,1.7,0c5.8-0.7,10.4-3.6,14.1-8.1C66.3,56.5,66.2,54.7,65,53.6z"/>
</g>
</svg>
